<svg xmlns="http://www.w3.org/2000/svg" viewBox="0 0 986.24 1966.52"><path fill="black" d="M.12 0h111.32v166.52h-.46c0-7.59-1.44-14.74-4.31-21.45-2.88-6.71-6.82-12.57-11.85-17.6-5.02-5.02-10.89-8.97-17.59-11.84-6.71-2.88-13.86-4.31-21.45-4.31s-14.74 1.44-21.45 4.31c-6.71 2.88-12.57 6.83-17.6 11.84-5.02 5.02-8.97 10.89-11.84 17.6-2.88 6.71-4.31 13.86-4.31 21.45H.12V0Zm4.77 77.11c2.88 6.71 6.82 12.57 11.84 17.59s10.89 8.97 17.6 11.84c6.71 2.88 13.86 4.31 21.45 4.31s14.74-1.44 21.45-4.31c6.71-2.88 12.57-6.82 17.59-11.84s8.97-10.89 11.85-17.59c2.88-6.71 4.31-13.86 4.31-21.45s-1.44-14.74-4.31-21.45c-2.88-6.71-6.82-12.57-11.85-17.59C89.8 11.6 83.93 7.65 77.23 4.78 70.51 1.9 63.37.46 55.77.46S41.03 1.9 34.32 4.77c-6.71 2.88-12.57 6.82-17.6 11.84C11.7 21.63 7.75 27.5 4.88 34.2 2.01 40.92.58 48.07.58 55.66S2.02 70.4 4.89 77.11ZM145.82 0h111.32v166.52H145.82V0Zm55.89 55.43c7.59 0 14.72-1.44 21.39-4.31 6.67-2.88 12.5-6.8 17.48-11.79 4.98-4.98 8.91-10.81 11.79-17.48s4.31-13.8 4.31-21.39h-110.4v54.97h55.43Zm-55.43.46v110.17h55.31c7.67 0 14.83-1.44 21.5-4.31 6.67-2.88 12.5-6.8 17.48-11.79 4.98-4.98 8.91-10.81 11.79-17.48s4.31-13.84 4.31-21.5-1.44-14.83-4.31-21.5-6.8-12.5-11.79-17.48c-4.98-4.98-10.81-8.91-17.48-11.79-6.67-2.88-13.84-4.31-21.5-4.31h-55.31ZM347.3 166.06c7.59 0 14.74-1.44 21.45-4.31 6.71-2.88 12.57-6.82 17.6-11.84 5.02-5.02 8.97-10.89 11.84-17.6 2.88-6.71 4.31-13.86 4.31-21.45h.46v55.66H291.64V0h111.32v55.66h-.46c0-7.59-1.44-14.74-4.31-21.45-2.88-6.71-6.82-12.57-11.84-17.59s-10.89-8.97-17.6-11.84C362.04 1.9 354.89.47 347.3.47h-55.2v165.59h55.2ZM437.46 0h111.32v166.52H437.46V0Zm.46.46v165.6h55.2c7.59 0 14.74-1.44 21.45-4.31 6.71-2.88 12.57-6.82 17.6-11.84 5.02-5.02 8.97-10.89 11.84-17.6 2.88-6.71 4.31-13.86 4.31-21.45v-55.2c0-7.59-1.44-14.74-4.31-21.45-2.88-6.71-6.82-12.57-11.84-17.59s-10.89-8.97-17.6-11.84C507.86 1.9 500.71.47 493.12.47h-55.2ZM583.28 166.52V0H694.6v55.66h-.46c0-7.59-1.46-14.74-4.37-21.45-2.91-6.71-6.86-12.57-11.85-17.59-4.98-5.02-10.83-8.97-17.54-11.84C653.67 1.9 646.52.47 638.93.47h-55.2v82.56h110.86v.46H583.73v82.57h55.2c7.59 0 14.74-1.44 21.45-4.31 6.71-2.88 12.57-6.82 17.6-11.84 5.02-5.02 8.97-10.89 11.84-17.6 2.88-6.71 4.31-13.86 4.31-21.45h.46v55.66H583.27ZM784.76.46c-7.59 0-14.74 1.44-21.45 4.31-6.71 2.88-12.57 6.82-17.59 11.84s-8.97 10.89-11.85 17.59c-2.88 6.71-4.31 13.86-4.31 21.45v27.37h110.86v.46h-55.66c-7.59 0-14.74 1.44-21.45 4.31-6.71 2.88-12.57 6.83-17.59 11.85s-8.97 10.89-11.85 17.59c-2.88 6.71-4.31 13.86-4.31 21.45v27.83h-.46V0h111.32v55.66h-.46c0-7.59-1.44-14.74-4.31-21.45-2.88-6.71-6.82-12.57-11.84-17.59s-10.89-8.97-17.6-11.84C799.5 1.9 792.35.47 784.76.47ZM909.13 4.77c-6.71 2.88-12.57 6.82-17.59 11.84s-8.97 10.89-11.85 17.59c-2.88 6.71-4.31 13.86-4.31 21.45v55.2c0 7.59 1.44 14.74 4.31 21.45 2.88 6.71 6.82 12.58 11.85 17.6 5.02 5.02 10.89 8.97 17.59 11.84 6.71 2.88 13.86 4.31 21.45 4.31h55.2v-27.37c0-7.59-1.44-14.74-4.31-21.45-2.88-6.71-6.82-12.57-11.84-17.59s-10.89-8.97-17.6-11.85c-6.71-2.88-13.86-4.31-21.45-4.31v-.46h55.66v83.49H874.92V0h111.32v55.66h-.46c0-7.59-1.46-14.74-4.37-21.45-2.91-6.71-6.86-12.57-11.85-17.59-4.98-5.02-10.83-8.97-17.54-11.84C945.31 1.9 938.16.47 930.57.47s-14.74 1.44-21.45 4.31ZM0 200h.46v27.83c0 7.59 1.46 14.74 4.37 21.45 2.91 6.71 6.86 12.57 11.84 17.59 4.98 5.02 10.83 8.97 17.54 11.84 6.71 2.88 13.86 4.31 21.45 4.31s14.74-1.44 21.45-4.31c6.71-2.88 12.57-6.82 17.6-11.84s8.97-10.89 11.84-17.59c2.88-6.71 4.31-13.86 4.31-21.45V200h.46v166.52h-.46v-27.83c0-7.59-1.44-14.74-4.31-21.45-2.88-6.71-6.82-12.57-11.84-17.59s-10.89-8.97-17.6-11.85c-6.71-2.88-13.86-4.31-21.45-4.31s-14.74 1.44-21.45 4.31c-6.71 2.88-12.57 6.83-17.59 11.85s-8.97 10.89-11.85 17.59C1.89 323.95.46 331.1.46 338.69v27.83H0V200ZM145.82 366.06c7.59 0 14.76-1.44 21.5-4.31 6.75-2.88 12.63-6.82 17.65-11.84 5.02-5.02 8.99-10.89 11.9-17.6 2.91-6.71 4.37-13.86 4.37-21.45v-55.2c0-7.59-1.46-14.74-4.37-21.45-2.91-6.71-6.88-12.57-11.9-17.59-5.02-5.02-10.91-8.97-17.65-11.84-6.75-2.88-13.92-4.31-21.5-4.31v-.46h111.32v.46c-7.59 0-14.76 1.44-21.5 4.31-6.75 2.88-12.63 6.82-17.65 11.84s-8.99 10.89-11.9 17.59c-2.91 6.71-4.37 13.86-4.37 21.45v55.2c0 7.59 1.46 14.74 4.37 21.45 2.91 6.71 6.88 12.58 11.9 17.6 5.02 5.02 10.91 8.97 17.65 11.84 6.75 2.88 13.92 4.31 21.5 4.31v.46H145.82v-.46ZM368.75 361.75c6.71-2.88 12.57-6.82 17.6-11.84 5.02-5.02 8.97-10.89 11.84-17.6 2.88-6.71 4.31-13.86 4.31-21.45v-55.2c0-7.59-1.44-14.74-4.31-21.45-2.88-6.71-6.82-12.57-11.84-17.59s-10.89-8.97-17.6-11.84c-6.71-2.88-13.86-4.31-21.45-4.31v-.46h55.66v166.52H291.64v-55.66h.46c0 7.59 1.46 14.74 4.37 21.45 2.91 6.71 6.86 12.58 11.84 17.6 4.98 5.02 10.83 8.97 17.54 11.84 6.71 2.88 13.86 4.31 21.45 4.31s14.74-1.44 21.45-4.31ZM437.92 200v83.03h55.2c7.59 0 14.74-1.44 21.45-4.31 6.71-2.88 12.57-6.82 17.6-11.84s8.97-10.89 11.84-17.59c2.88-6.71 4.31-13.86 4.31-21.45v-27.83h.46v166.52h-.46V338.7c0-7.59-1.44-14.74-4.31-21.45-2.88-6.71-6.82-12.57-11.84-17.59s-10.89-8.97-17.6-11.85c-6.71-2.88-13.86-4.31-21.45-4.31s-14.74 1.44-21.45 4.31c-6.71 2.88-12.57 6.83-17.59 11.85s-8.97 10.89-11.85 17.59c-2.88 6.71-4.31 13.86-4.31 21.45v27.83h-.46V200h.46ZM660.38 361.75c6.71-2.88 12.55-6.82 17.54-11.84 4.98-5.02 8.93-10.89 11.85-17.6 2.91-6.71 4.37-13.86 4.37-21.45h.46v55.66H583.28V200h.46v110.86c0 7.59 1.44 14.74 4.31 21.45 2.88 6.71 6.82 12.58 11.85 17.6 5.02 5.02 10.89 8.97 17.59 11.84 6.71 2.88 13.86 4.31 21.45 4.31s14.74-1.44 21.45-4.31ZM839.96 366.52V255.66c0-7.59-1.44-14.72-4.31-21.39s-6.8-12.5-11.79-17.48c-4.98-4.98-10.81-8.91-17.48-11.79-6.67-2.88-13.8-4.31-21.39-4.31v165.83h-.46V200.69c-7.59 0-14.72 1.44-21.39 4.31s-12.5 6.8-17.48 11.79c-4.98 4.99-8.91 10.81-11.79 17.48s-4.31 13.8-4.31 21.39v110.86h-.46V200h111.32v166.52h-.46ZM930.81 200v166.06c7.59 0 14.72-1.44 21.39-4.31 6.67-2.88 12.5-6.8 17.48-11.79 4.98-4.98 8.91-10.81 11.79-17.48s4.31-13.8 4.31-21.39V200h.46v166.52h-55.89V200.46c-7.59 0-14.72 1.44-21.39 4.31s-12.5 6.8-17.48 11.79c-4.98 4.98-8.91 10.81-11.79 17.48-2.88 6.67-4.31 13.8-4.31 21.39v111.09h-.46V200h55.89ZM0 400h111.32v166.52H0V400Zm4.83 132.31c2.91 6.71 6.86 12.58 11.84 17.6 4.98 5.02 10.83 8.97 17.54 11.84 6.71 2.88 13.86 4.31 21.45 4.31s14.74-1.44 21.45-4.31c6.71-2.88 12.57-6.82 17.6-11.84 5.02-5.02 8.97-10.89 11.84-17.6 2.88-6.71 4.31-13.86 4.31-21.45v-55.2c0-7.59-1.44-14.74-4.31-21.45-2.88-6.71-6.82-12.57-11.84-17.59s-10.89-8.97-17.6-11.84c-6.71-2.88-13.86-4.31-21.45-4.31s-14.74 1.44-21.45 4.31c-6.71 2.88-12.57 6.82-17.59 11.84s-8.97 10.89-11.85 17.59C1.89 440.92.46 448.07.46 455.66v55.2c0 7.59 1.46 14.74 4.37 21.45ZM145.82 400h111.32v111.32H146.28v55.2h-.46V400Zm.46 110.86h55.2c7.59 0 14.74-1.44 21.45-4.31 6.71-2.88 12.57-6.82 17.6-11.84s8.97-10.89 11.84-17.59c2.88-6.71 4.31-13.86 4.31-21.45s-1.44-14.74-4.31-21.45c-2.88-6.71-6.82-12.57-11.84-17.59s-10.89-8.97-17.6-11.84c-6.71-2.88-13.86-4.31-21.45-4.31h-55.2v110.4ZM291.64 400h111.32v111.32c-7.59 0-14.74 1.44-21.45 4.31-6.71 2.88-12.55 6.83-17.54 11.84-4.98 5.02-8.93 10.89-11.84 17.6-2.91 6.71-4.37 13.86-4.37 21.45h-56.12V400Zm.46 110.86c0 7.59 1.46 14.74 4.37 21.45 2.91 6.71 6.86 12.58 11.84 17.6 4.98 5.02 10.83 8.97 17.54 11.84 6.71 2.88 13.86 4.31 21.45 4.31v-55.2h55.2v-55.2c0-7.59-1.44-14.74-4.31-21.45-2.88-6.71-6.82-12.57-11.84-17.59s-10.89-8.97-17.6-11.84c-6.71-2.88-13.86-4.31-21.45-4.31s-14.74 1.44-21.45 4.31c-6.71 2.88-12.57 6.82-17.59 11.84s-8.97 10.89-11.85 17.59c-2.88 6.71-4.31 13.86-4.31 21.45v55.2ZM437.46 400h111.32v166.52h-.46c0-7.59-1.44-14.74-4.31-21.45-2.88-6.71-6.82-12.57-11.84-17.6-5.02-5.02-10.89-8.97-17.6-11.84-6.71-2.88-13.86-4.31-21.45-4.31h-55.2v55.2h-.46V400Zm77.11 106.55c6.71-2.88 12.57-6.82 17.6-11.84s8.97-10.89 11.84-17.59c2.88-6.71 4.31-13.86 4.31-21.45s-1.44-14.74-4.31-21.45c-2.88-6.71-6.82-12.57-11.84-17.59s-10.89-8.97-17.6-11.84c-6.71-2.88-13.86-4.31-21.45-4.31h-55.2v110.4h55.2c7.59 0 14.74-1.44 21.45-4.31ZM694.14 566.06v-55.2c0-7.59-1.44-14.74-4.31-21.45-2.88-6.71-6.82-12.57-11.84-17.59s-10.89-8.97-17.6-11.85c-6.71-2.88-13.86-4.31-21.45-4.31h-55.66V400H694.6v54.74h-.46c0-7.51-1.42-14.55-4.25-21.1-2.84-6.55-6.73-12.3-11.67-17.25-4.95-4.94-10.7-8.83-17.25-11.67-6.56-2.84-13.59-4.25-21.1-4.25h-56.12v54.74h110.86v111.32H583.29v-55.66h.46c0 7.59 1.44 14.74 4.31 21.45 2.88 6.71 6.82 12.58 11.85 17.6 5.02 5.02 10.89 8.97 17.59 11.84 6.71 2.88 13.86 4.31 21.45 4.31h55.2ZM729.1 455.43V400h111.32v55.43h-.46c0-7.59-1.44-14.72-4.31-21.39-2.88-6.67-6.8-12.5-11.79-17.48-4.98-4.98-10.81-8.91-17.48-11.79-6.67-2.88-13.8-4.31-21.39-4.31v166.06h-.46V400.46c-7.59 0-14.72 1.44-21.39 4.31s-12.5 6.8-17.48 11.79c-4.98 4.98-8.91 10.81-11.79 17.48-2.88 6.67-4.31 13.8-4.31 21.39h-.46ZM875.38 400v110.86c0 7.59 1.44 14.74 4.31 21.45 2.88 6.71 6.82 12.58 11.85 17.6 5.02 5.02 10.89 8.97 17.59 11.84 6.71 2.88 13.86 4.31 21.45 4.31s14.74-1.44 21.45-4.31c6.71-2.88 12.55-6.82 17.54-11.84 4.98-5.02 8.93-10.89 11.85-17.6 2.91-6.71 4.37-13.86 4.37-21.45V400h.46v166.52H874.93V400h.46ZM0 600h.46v166.06h55.2c7.59 0 14.74-1.44 21.45-4.31 6.71-2.88 12.55-6.82 17.54-11.84 4.98-5.02 8.93-10.89 11.85-17.6 2.91-6.71 4.37-13.86 4.37-21.45V600h.46v166.52H0V600ZM257.14 766.52H145.82V600h.46v110.86c0 7.59 1.44 14.72 4.31 21.39 2.88 6.67 6.8 12.5 11.79 17.48 4.98 4.98 10.81 8.91 17.48 11.79s13.8 4.31 21.39 4.31V600h.46v165.83c7.59 0 14.72-1.44 21.39-4.31 6.67-2.88 12.5-6.8 17.48-11.79 4.98-4.98 8.91-10.81 11.79-17.48 2.88-6.67 4.31-13.8 4.31-21.39V600h.46v166.52ZM291.64 766.52v-55.43h.23c0 7.59 1.44 14.74 4.31 21.45 2.88 6.71 6.82 12.57 11.85 17.59 5.02 5.02 10.89 8.97 17.59 11.84 6.71 2.88 13.86 4.31 21.45 4.31V600.22c-7.59 0-14.74 1.44-21.45 4.31-6.71 2.88-12.57 6.82-17.59 11.84s-8.97 10.89-11.85 17.6c-2.88 6.71-4.31 13.86-4.31 21.45h-.23v-55.43h111.32v55.43h-.23c0-7.59-1.44-14.74-4.31-21.45-2.88-6.71-6.82-12.57-11.84-17.6-5.02-5.02-10.89-8.97-17.6-11.84-6.71-2.88-13.86-4.31-21.45-4.31v166.06c7.59 0 14.74-1.44 21.45-4.31 6.71-2.88 12.57-6.82 17.6-11.84s8.97-10.89 11.84-17.59c2.88-6.71 4.31-13.86 4.31-21.45h.23v55.43H291.64ZM437.92 600v55.2c0 7.59 1.44 14.74 4.31 21.45 2.88 6.71 6.82 12.57 11.85 17.59 5.02 5.02 10.89 8.97 17.59 11.84 6.71 2.88 13.86 4.31 21.45 4.31s14.74-1.44 21.45-4.31c6.71-2.88 12.57-6.82 17.6-11.84s8.97-10.89 11.84-17.59c2.88-6.71 4.31-13.86 4.31-21.45V600h.46v166.52H437.46v-.46h55.66c7.59 0 14.74-1.44 21.45-4.31 6.71-2.88 12.57-6.82 17.6-11.84 5.02-5.02 8.97-10.89 11.84-17.6 2.88-6.71 4.31-13.86 4.31-21.45H437.46V600h.46ZM583.74 683.26h-.46V600h55.89v166.06c7.59 0 14.72-1.44 21.39-4.31 6.67-2.88 12.5-6.8 17.48-11.79 4.98-4.98 8.91-10.81 11.79-17.48s4.31-13.8 4.31-21.39v-27.83h.46v83.26h-55.89V600.46c-7.59 0-14.72 1.44-21.39 4.31s-12.5 6.8-17.48 11.79c-4.98 4.98-8.91 10.81-11.79 17.48-2.88 6.67-4.31 13.8-4.31 21.39v27.83ZM840.42 600v166.52H729.1v-83.49h110.86v-82.57h-55.2c-7.44 0-14.51 1.48-21.22 4.43-6.71 2.95-12.57 6.94-17.59 11.96s-9.01 10.87-11.96 17.54c-2.95 6.67-4.43 13.76-4.43 21.27h-.46V600h111.32Zm-34.38 161.63c6.67-2.95 12.52-6.94 17.54-11.96s9.01-10.89 11.96-17.59c2.95-6.71 4.43-13.78 4.43-21.22v-27.37h-55.2c-7.44 0-14.51 1.48-21.22 4.43-6.71 2.95-12.57 6.94-17.59 11.96s-9.01 10.87-11.96 17.54c-2.95 6.67-4.43 13.76-4.43 21.28v27.37h55.2c7.51 0 14.6-1.48 21.27-4.43ZM874.92 600h.46v55.2h110.86v111.32H874.92V600Zm76.94 161.63c6.67-2.95 12.52-6.94 17.54-11.96s9.01-10.89 11.96-17.59c2.95-6.71 4.43-13.78 4.43-21.22s-1.48-14.6-4.43-21.27c-2.95-6.67-6.94-12.52-11.96-17.54-5.02-5.02-10.87-9.01-17.54-11.96-6.67-2.95-13.76-4.43-21.27-4.43s-14.51 1.48-21.22 4.43c-6.71 2.95-12.57 6.94-17.59 11.96s-9.01 10.87-11.96 17.54c-2.95 6.67-4.43 13.76-4.43 21.27v55.2h55.2c7.51 0 14.6-1.48 21.27-4.43ZM111.32 855.66h-.46c0-7.51-1.48-14.6-4.43-21.27-2.95-6.67-6.94-12.52-11.96-17.54-5.02-5.02-10.87-9.01-17.54-11.96-6.67-2.95-13.76-4.43-21.27-4.43H.46v110.4c0 7.44 1.48 14.51 4.43 21.22 2.95 6.71 6.94 12.57 11.96 17.59 5.02 5.02 10.89 9.01 17.59 11.96 6.71 2.95 13.78 4.43 21.22 4.43h55.66v.46H0V800h111.32v55.66ZM145.82 966.52V855.2h110.86V800h.46v166.52H145.82Zm110.86-.46v-55.2c0-7.51-1.48-14.6-4.43-21.27-2.95-6.67-6.94-12.52-11.96-17.54-5.02-5.02-10.87-9.01-17.54-11.96-6.67-2.95-13.76-4.43-21.27-4.43s-14.51 1.48-21.22 4.43c-6.71 2.95-12.57 6.94-17.59 11.96s-9.01 10.87-11.96 17.54c-2.95 6.67-4.43 13.76-4.43 21.27s1.48 14.51 4.43 21.22c2.95 6.71 6.94 12.57 11.96 17.59 5.02 5.02 10.89 9.01 17.59 11.96 6.71 2.95 13.78 4.43 21.22 4.43h55.2ZM291.64 966.52V800h111.32v83.49H292.1v27.37c0 7.44 1.48 14.51 4.43 21.22 2.95 6.71 6.94 12.57 11.96 17.59 5.02 5.02 10.89 9.01 17.59 11.96 6.71 2.95 13.78 4.43 21.22 4.43h55.66v.46H291.64Zm34.44-161.63c-6.71 2.95-12.57 6.94-17.59 11.96s-9.01 10.87-11.96 17.54c-2.95 6.67-4.43 13.76-4.43 21.27v27.37h55.2c7.51 0 14.6-1.47 21.27-4.43 6.67-2.95 12.52-6.94 17.54-11.96s9.01-10.88 11.96-17.59c2.95-6.71 4.43-13.78 4.43-21.22v-27.37h-55.2c-7.44 0-14.51 1.48-21.22 4.43ZM437.46 800h111.32v55.66h-.46c0-7.51-1.48-14.6-4.43-21.27-2.95-6.67-6.94-12.52-11.96-17.54-5.02-5.02-10.87-9.01-17.54-11.96-6.67-2.95-13.76-4.43-21.27-4.43h-55.2v82.57h110.86v.46H437.92v83.03h-.46V800ZM583.28 910.86h.46c0 7.44 1.48 14.51 4.43 21.22 2.95 6.71 6.94 12.57 11.96 17.59 5.02 5.02 10.89 9.01 17.59 11.96 6.71 2.95 13.78 4.43 21.22 4.43h55.2v-82.57H583.28V800H694.6v166.52H583.28v-55.66Zm34.44-105.97c-6.71 2.95-12.57 6.94-17.59 11.96s-9.01 10.87-11.96 17.54c-2.95 6.67-4.43 13.76-4.43 21.27v27.37h55.2c7.51 0 14.6-1.47 21.27-4.43 6.67-2.95 12.52-6.94 17.54-11.96s9.01-10.88 11.96-17.59c2.95-6.71 4.43-13.78 4.43-21.22v-27.37h-55.2c-7.44 0-14.51 1.48-21.22 4.43ZM729.1 966.52V800h.46v55.2h110.86v111.32h-.46v-55.66c0-7.51-1.48-14.6-4.43-21.27-2.95-6.67-6.94-12.52-11.96-17.54-5.02-5.02-10.87-9.01-17.54-11.96-6.67-2.95-13.76-4.43-21.27-4.43h-55.2v110.86h-.46ZM930.12 855.66c0-7.51-1.48-14.6-4.43-21.27-2.95-6.67-6.94-12.52-11.96-17.54-5.02-5.02-10.87-9.01-17.54-11.96-6.67-2.95-13.76-4.43-21.27-4.43V800h55.66v55.66h-.46Zm-55.2 27.95v-.58h55.66v83.03h55.66v.46H874.92v-.46c7.51 0 14.6-1.48 21.27-4.43 6.67-2.95 12.52-6.94 17.54-11.96s9.01-10.89 11.96-17.59c2.95-6.71 4.43-13.78 4.43-21.22v-27.25h-55.2ZM111.32 1166.52H0v-55.66h.46c0 7.44 1.48 14.51 4.43 21.22 2.95 6.71 6.94 12.57 11.96 17.59 5.02 5.02 10.89 9.01 17.59 11.96 6.71 2.95 13.78 4.43 21.22 4.43h55.2V1000h.46v166.52ZM145.82 1000h.46v110.86h55.2c7.59 0 14.74-1.44 21.45-4.31 6.71-2.88 12.57-6.82 17.6-11.84s8.97-10.89 11.84-17.59c2.88-6.71 4.31-13.86 4.31-21.45v-55.66h.46v166.52h-.46c0-7.59-1.44-14.74-4.31-21.45-2.88-6.71-6.82-12.57-11.84-17.6-5.02-5.02-10.89-8.97-17.6-11.84-6.71-2.88-13.86-4.31-21.45-4.31h-55.2v55.2h-.46v-166.52ZM291.64 1166.52V1000h.46v166.06h55.2c7.59 0 14.74-1.44 21.45-4.31 6.71-2.88 12.57-6.82 17.6-11.84 5.02-5.02 8.97-10.89 11.84-17.6 2.88-6.71 4.31-13.86 4.31-21.45h.46v55.66H291.64ZM548.32 1166.52v-110.86c0-7.59-1.44-14.72-4.31-21.39s-6.8-12.5-11.79-17.48c-4.98-4.98-10.81-8.91-17.48-11.79-6.67-2.88-13.8-4.31-21.39-4.31v165.83h-.46v-110.86c0-7.59-1.44-14.72-4.31-21.39s-6.81-12.5-11.79-17.48c-4.98-4.98-10.81-8.91-17.48-11.79s-13.8-4.31-21.39-4.31v165.83h-.46V1000h111.32v166.52h-.46ZM694.6 1000v166.52h-.46v-110.86c0-7.59-1.44-14.74-4.31-21.45-2.88-6.71-6.82-12.57-11.84-17.59s-10.89-8.97-17.6-11.84c-6.71-2.88-13.86-4.31-21.45-4.31h-55.2v166.06h-.46v-166.52H694.6ZM729.1 1166.52V1000h111.32v166.52H729.1Zm55.66-.46c7.59 0 14.74-1.44 21.45-4.31 6.71-2.88 12.57-6.82 17.6-11.84 5.02-5.02 8.97-10.89 11.84-17.6 2.88-6.71 4.31-13.86 4.31-21.45v-110.4h-55.2c-7.59 0-14.74 1.44-21.45 4.31-6.71 2.88-12.57 6.82-17.59 11.84s-8.97 10.89-11.85 17.59c-2.88 6.71-4.31 13.86-4.31 21.45v110.4h55.2ZM986.24 1000v111.32H875.38v55.2h-.46V1000h111.32Zm-34.38 106.43c6.67-2.95 12.52-6.94 17.54-11.96s9.01-10.88 11.96-17.59c2.95-6.71 4.43-13.78 4.43-21.22s-1.48-14.6-4.43-21.27c-2.95-6.67-6.94-12.52-11.96-17.54-5.02-5.02-10.87-9.01-17.54-11.96-6.67-2.95-13.76-4.43-21.27-4.43s-14.51 1.48-21.22 4.43c-6.71 2.95-12.57 6.94-17.59 11.96s-9.01 10.87-11.96 17.54c-2.95 6.67-4.43 13.76-4.43 21.27v55.2h55.2c7.51 0 14.6-1.47 21.27-4.43ZM111.32 1366.52h-.46v-55.2H0V1200h111.32v166.52Zm-.46-55.66v-55.2c0-7.51-1.48-14.6-4.43-21.27-2.95-6.67-6.94-12.52-11.96-17.54-5.02-5.02-10.87-9.01-17.54-11.96-6.67-2.95-13.76-4.43-21.27-4.43s-14.51 1.48-21.22 4.43c-6.71 2.95-12.57 6.94-17.59 11.96s-9.01 10.87-11.96 17.54c-2.95 6.67-4.43 13.76-4.43 21.27s1.48 14.51 4.43 21.22c2.95 6.71 6.94 12.57 11.96 17.59 5.02 5.02 10.89 9.01 17.59 11.96 6.71 2.95 13.78 4.43 21.22 4.43h55.2ZM146.28 1200.46v166.06h-.46V1200h111.32v55.66h-.46c0-7.59-1.44-14.74-4.31-21.45-2.88-6.71-6.82-12.57-11.84-17.59s-10.89-8.97-17.6-11.84c-6.71-2.88-13.86-4.31-21.45-4.31h-55.2ZM291.64 1310.86h.46c0 7.59 1.44 14.74 4.31 21.45 2.88 6.71 6.82 12.58 11.85 17.6 5.02 5.02 10.89 8.97 17.59 11.84 6.71 2.88 13.86 4.31 21.45 4.31h55.2v-27.37c0-7.59-1.44-14.74-4.31-21.45-2.88-6.71-6.82-12.57-11.84-17.59s-10.89-8.97-17.6-11.85c-6.71-2.88-13.86-4.31-21.45-4.31h-55.66V1200h111.32v55.66h-.46c0-7.59-1.44-14.74-4.31-21.45-2.88-6.71-6.82-12.57-11.84-17.59s-10.89-8.97-17.6-11.84c-6.71-2.88-13.86-4.31-21.45-4.31h-55.2v82.57h110.86v83.49H291.64v-55.66ZM548.78 1255.66H437.92v55.2c0 7.44 1.48 14.51 4.43 21.22 2.95 6.71 6.94 12.57 11.96 17.59 5.02 5.02 10.89 9.01 17.59 11.96 6.71 2.95 13.78 4.43 21.22 4.43h55.66v.46H437.46V1200h.46v.11c0 7.44 1.48 14.51 4.43 21.22 2.95 6.71 6.94 12.57 11.96 17.59 5.02 5.02 10.89 9.01 17.59 11.96 6.71 2.95 13.78 4.43 21.22 4.43h55.66v.34ZM583.28 1366.52V1200h.46v110.86c0 7.59 1.44 14.74 4.31 21.45 2.88 6.71 6.82 12.58 11.85 17.6 5.02 5.02 10.89 8.97 17.59 11.84 6.71 2.88 13.86 4.31 21.45 4.31s14.74-1.44 21.45-4.31c6.71-2.88 12.55-6.82 17.54-11.84 4.98-5.02 8.93-10.89 11.85-17.6 2.91-6.71 4.37-13.86 4.37-21.45v-55.2c0-7.59-1.44-14.74-4.31-21.45-2.88-6.71-6.82-12.57-11.84-17.59s-10.89-8.97-17.6-11.84c-6.71-2.88-13.86-4.31-21.45-4.31v-.46h55.66v166.52H583.29ZM729.1 1366.52V1200h55.66v.46c-7.59 0-14.74 1.44-21.45 4.31-6.71 2.88-12.57 6.82-17.59 11.84s-8.97 10.89-11.85 17.59c-2.88 6.71-4.31 13.86-4.31 21.45v110.4h55.2c7.59 0 14.74-1.44 21.45-4.31 6.71-2.88 12.55-6.82 17.54-11.84 4.98-5.02 8.93-10.89 11.85-17.6 2.91-6.71 4.37-13.86 4.37-21.45v-110.86h.46v166.52H729.11ZM875.38 1200v110.86c0 7.59 1.44 14.72 4.31 21.39 2.88 6.67 6.8 12.5 11.79 17.48 4.98 4.98 10.81 8.91 17.48 11.79s13.8 4.31 21.39 4.31V1200h.46v110.86c0 7.59 1.44 14.72 4.31 21.39 2.88 6.67 6.8 12.5 11.79 17.48 4.98 4.98 10.81 8.91 17.48 11.79 6.67 2.88 13.8 4.31 21.39 4.31V1200h.46v166.52H874.92V1200h.46ZM111.32 1511.09v55.43H0v-.46h.46c7.59 0 14.72-1.44 21.39-4.31s12.5-6.8 17.48-11.79c4.98-4.98 8.91-10.81 11.79-17.48s4.31-13.8 4.31-21.39v-110.63c-7.59 0-14.72 1.44-21.39 4.31s-12.5 6.8-17.48 11.79c-4.98 4.98-8.91 10.81-11.79 17.48-2.88 6.67-4.31 13.8-4.31 21.39H0V1400h111.32v.46h-.46c-7.59 0-14.72 1.44-21.39 4.31-6.67 2.88-12.5 6.8-17.48 11.79-4.98 4.98-8.91 10.81-11.79 17.48-2.88 6.67-4.31 13.8-4.31 21.39v110.63c7.59 0 14.72-1.44 21.39-4.31 6.67-2.88 12.5-6.8 17.48-11.79 4.98-4.98 8.91-10.81 11.79-17.48s4.31-13.8 4.31-21.39h.46ZM145.82 1566.06h55.66c7.51 0 14.6-1.48 21.27-4.43 6.67-2.95 12.52-6.94 17.54-11.96s9.01-10.89 11.96-17.59c2.95-6.71 4.43-13.78 4.43-21.22v-27.37H145.82V1400h.46v27.83c0 7.44 1.48 14.51 4.43 21.22 2.95 6.71 6.94 12.57 11.96 17.59 5.02 5.02 10.89 9.01 17.59 11.96 6.71 2.95 13.78 4.43 21.22 4.43s14.6-1.47 21.27-4.43c6.67-2.95 12.52-6.94 17.54-11.96s9.01-10.88 11.96-17.59c2.95-6.71 4.43-13.78 4.43-21.22V1400h.46v166.52H145.82v-.46ZM291.64 1455.43V1400h55.89v166.06c7.59 0 14.72-1.44 21.39-4.31 6.67-2.88 12.5-6.8 17.48-11.79 4.98-4.98 8.91-10.81 11.79-17.48s4.31-13.8 4.31-21.39h.46v55.43h-55.89v-166.06c-7.59 0-14.72 1.44-21.39 4.31s-12.5 6.8-17.48 11.79c-4.98 4.98-8.91 10.81-11.79 17.48-2.88 6.67-4.31 13.8-4.31 21.39h-.46ZM436.08 1566.52v-.46h.23c7.51 0 14.6-1.48 21.27-4.43 6.67-2.95 12.52-6.94 17.54-11.96s9.01-10.89 11.96-17.59c2.95-6.71 4.43-13.78 4.43-21.22v-110.4c-7.44 0-14.51 1.48-21.22 4.43-6.71 2.95-12.57 6.94-17.59 11.96s-9.01 10.87-11.96 17.54c-2.95 6.67-4.43 13.76-4.43 21.27h-.23V1400h55.89v110.86c0 7.44 1.48 14.51 4.43 21.22 2.95 6.71 6.94 12.57 11.96 17.59 5.02 5.02 10.89 9.01 17.6 11.96 6.71 2.95 13.78 4.43 21.22 4.43h.23v.46H436.09ZM637.56 1566.06c7.51 0 14.6-1.48 21.27-4.43 6.67-2.95 12.52-6.94 17.54-11.96s9.01-10.89 11.96-17.59c2.95-6.71 4.43-13.78 4.43-21.22h.46v55.66H581.9v-83.49h110.86v-82.57h-55.2c-7.44 0-14.51 1.48-21.22 4.43-6.71 2.95-12.57 6.94-17.59 11.96s-9.01 10.87-11.96 17.54c-2.95 6.67-4.43 13.76-4.43 21.27h-.46V1400h111.32v83.49H582.36v82.57h55.2ZM839.04 1400v166.52H727.72v-55.66h.46c0 7.44 1.48 14.51 4.43 21.22 2.95 6.71 6.94 12.57 11.96 17.59 5.02 5.02 10.89 9.01 17.59 11.96 6.71 2.95 13.78 4.43 21.22 4.43h55.2v-27.37c0-7.51-1.48-14.6-4.43-21.28-2.95-6.67-6.94-12.51-11.96-17.54-5.02-5.02-10.87-9.01-17.54-11.96-6.67-2.95-13.76-4.43-21.27-4.43h-55.66v-.46h110.86v-82.57h-55.2c-7.44 0-14.51 1.48-21.22 4.43-6.71 2.95-12.57 6.94-17.59 11.96s-9.01 10.87-11.96 17.54c-2.95 6.67-4.43 13.76-4.43 21.27h-.46v-55.66h111.32ZM874 1400v27.83c0 7.44 1.48 14.51 4.43 21.22 2.95 6.71 6.94 12.57 11.96 17.59 5.02 5.02 10.89 9.01 17.59 11.96 6.71 2.95 13.78 4.43 21.22 4.43s14.6-1.47 21.27-4.43c6.67-2.95 12.52-6.94 17.54-11.96s9.01-10.88 11.96-17.59c2.95-6.71 4.43-13.78 4.43-21.22V1400h.46v166.52h-.46v-27.83c0-7.51-1.48-14.6-4.43-21.28-2.95-6.67-6.94-12.51-11.96-17.54-5.02-5.02-10.87-9.01-17.54-11.96-6.67-2.95-13.76-4.43-21.27-4.43h-55.66v-83.49h.46ZM76.94 1761.63c6.67-2.95 12.52-6.94 17.54-11.96s9.01-10.89 11.96-17.59c2.95-6.71 4.43-13.78 4.43-21.22v-27.37H0V1600h111.32v.46H55.66c-7.44 0-14.51 1.48-21.22 4.43-6.71 2.95-12.57 6.94-17.59 11.96s-9.01 10.87-11.96 17.54c-2.95 6.67-4.43 13.76-4.43 21.27v27.37h110.86v83.49H0v-55.66h.46c0 7.44 1.48 14.51 4.43 21.22 2.95 6.71 6.94 12.57 11.96 17.59 5.02 5.02 10.89 9.01 17.59 11.96 6.71 2.95 13.78 4.43 21.22 4.43s14.6-1.48 21.27-4.43ZM145.82 1766.52V1600h111.32v.46h-55.66c-7.44 0-14.51 1.48-21.22 4.43-6.71 2.95-12.57 6.94-17.59 11.96s-9.01 10.87-11.96 17.54c-2.95 6.67-4.43 13.76-4.43 21.27v27.37h110.86v83.49H145.82Zm55.66-.46c7.51 0 14.6-1.48 21.27-4.43 6.67-2.95 12.52-6.94 17.54-11.96s9.01-10.89 11.96-17.59c2.95-6.71 4.43-13.78 4.43-21.22v-27.37h-55.2c-7.44 0-14.51 1.48-21.22 4.43-6.71 2.95-12.57 6.94-17.59 11.96s-9.01 10.87-11.96 17.54c-2.95 6.67-4.43 13.76-4.43 21.28v27.37h55.2ZM347.3 1600.46c-7.44 0-14.51 1.48-21.22 4.43-6.71 2.95-12.57 6.94-17.59 11.96s-9.01 10.87-11.96 17.54c-2.95 6.67-4.43 13.76-4.43 21.27h-.46V1600h111.32v166.52h-.46v-110.86c0-7.51-1.48-14.6-4.43-21.27-2.95-6.67-6.94-12.52-11.96-17.54-5.02-5.02-10.87-9.01-17.54-11.96-6.67-2.95-13.76-4.43-21.27-4.43ZM437.46 1600h111.32v166.52H437.46V1600Zm55.66 83.03c7.51 0 14.6-1.47 21.27-4.43 6.67-2.95 12.52-6.94 17.54-11.96s9.01-10.88 11.96-17.59c2.95-6.71 4.43-13.78 4.43-21.22v-27.37h-55.2c-7.44 0-14.51 1.48-21.22 4.43-6.71 2.95-12.57 6.94-17.59 11.96s-9.01 10.87-11.96 17.54c-2.95 6.67-4.43 13.76-4.43 21.27v27.37h55.2Zm0 83.03c7.51 0 14.6-1.48 21.27-4.43 6.67-2.95 12.52-6.94 17.54-11.96s9.01-10.89 11.96-17.59c2.95-6.71 4.43-13.78 4.43-21.22v-27.37h-55.2c-7.44 0-14.51 1.48-21.22 4.43-6.71 2.95-12.57 6.94-17.59 11.96s-9.01 10.87-11.96 17.54c-2.95 6.67-4.43 13.76-4.43 21.28v27.37h55.2ZM694.6 1600v166.52H583.28v-.46h55.66c7.51 0 14.6-1.48 21.27-4.43 6.67-2.95 12.52-6.94 17.54-11.96s9.01-10.89 11.96-17.59c2.95-6.71 4.43-13.78 4.43-21.22v-27.37H583.28V1600H694.6Zm-55.66.46c-7.44 0-14.51 1.48-21.22 4.43-6.71 2.95-12.57 6.94-17.59 11.96s-9.01 10.87-11.96 17.54c-2.95 6.67-4.43 13.76-4.43 21.27v27.37h55.2c7.51 0 14.6-1.47 21.27-4.43 6.67-2.95 12.52-6.94 17.54-11.96s9.01-10.88 11.96-17.59c2.95-6.71 4.43-13.78 4.43-21.22v-27.37h-55.2ZM729.1 1600h111.32v166.52H729.1V1600Zm110.86 55.66c0-7.59-1.44-14.74-4.31-21.45-2.88-6.71-6.82-12.57-11.84-17.59s-10.89-8.97-17.6-11.84c-6.71-2.88-13.86-4.31-21.45-4.31h-55.2v110.4c0 7.59 1.44 14.74 4.31 21.45 2.88 6.71 6.82 12.58 11.85 17.6 5.02 5.02 10.89 8.97 17.59 11.84 6.71 2.88 13.86 4.31 21.45 4.31h55.2v-110.4ZM874.92 1710.63V1600h55.66v55.43c-7.59 0-14.74 1.44-21.45 4.31-6.71 2.88-12.55 6.82-17.54 11.84-4.98 5.02-8.93 10.89-11.84 17.59-2.91 6.71-4.37 13.86-4.37 21.45h-.46Zm55.2 55.89c0-7.59-1.46-14.74-4.37-21.45-2.91-6.71-6.86-12.57-11.85-17.6-4.98-5.02-10.83-8.97-17.54-11.84-6.71-2.88-13.86-4.31-21.45-4.31v-.23h55.66v55.43h-.46ZM111.32 1800.46c-7.59 0-14.74 1.44-21.45 4.31-6.71 2.88-12.57 6.82-17.6 11.84-5.02 5.02-8.97 10.89-11.84 17.59-2.88 6.71-4.31 13.86-4.31 21.45v55.2c0 7.59 1.44 14.74 4.31 21.45 2.88 6.71 6.82 12.58 11.84 17.6 5.02 5.02 10.89 8.97 17.6 11.84 6.71 2.88 13.86 4.31 21.45 4.31v.46H55.2v-28.06c0-7.59-1.44-14.74-4.31-21.45-2.88-6.71-6.82-12.57-11.85-17.59-5.02-5.02-10.89-8.97-17.6-11.84-6.71-2.88-13.86-4.31-21.45-4.31v-.46c7.59 0 14.74-1.44 21.45-4.31 6.71-2.88 12.57-6.82 17.6-11.85s8.97-10.88 11.85-17.59c2.88-6.71 4.31-13.86 4.31-21.45V1800h56.12v.46ZM257.02 1855.66h-.46c0-7.51-1.48-14.6-4.43-21.27-2.95-6.67-6.94-12.52-11.96-17.54-5.02-5.02-10.87-9.01-17.54-11.96-6.67-2.95-13.76-4.43-21.27-4.43h-55.2v110.4c0 7.44 1.48 14.51 4.43 21.22 2.95 6.71 6.94 12.57 11.96 17.59 5.02 5.02 10.89 9.01 17.6 11.96 6.71 2.95 13.78 4.43 21.22 4.43h55.66v.46H145.71V1800h111.32v55.66Zm-83.72-85.1h.46c0 3.83.73 7.42 2.19 10.75s3.43 6.25 5.92 8.74c2.49 2.49 5.42 4.47 8.8 5.92 3.37 1.46 6.94 2.18 10.69 2.18s7.42-.73 10.75-2.18c3.33-1.46 6.25-3.43 8.74-5.92s4.47-5.42 5.92-8.8c1.46-3.37 2.19-6.94 2.19-10.7h.46v28.06H173.3v-28.06ZM291.52 1966.52V1800h111.32v83.49H291.98v27.37c0 7.44 1.48 14.51 4.43 21.22 2.95 6.71 6.94 12.57 11.96 17.59 5.02 5.02 10.89 9.01 17.6 11.96 6.71 2.95 13.78 4.43 21.22 4.43h55.66v.46H291.53Zm34.44-161.63c-6.71 2.95-12.57 6.94-17.6 11.96-5.02 5.02-9.01 10.87-11.96 17.54-2.95 6.67-4.43 13.76-4.43 21.27v27.37h55.2c7.51 0 14.6-1.47 21.27-4.43 6.67-2.95 12.52-6.94 17.54-11.96 5.02-5.02 9.01-10.88 11.96-17.59 2.95-6.71 4.43-13.78 4.43-21.22v-27.37h-55.2c-7.44 0-14.51 1.48-21.22 4.43Zm35.25-34.1v27.83h-28.06v-27.83h28.06ZM493.58 1800v27.6c0 7.59 1.44 14.74 4.31 21.45 2.88 6.71 6.82 12.57 11.84 17.59s10.89 8.97 17.6 11.85c6.71 2.88 13.86 4.31 21.45 4.31v.46c-7.59 0-14.74 1.44-21.45 4.31-6.71 2.88-12.57 6.82-17.6 11.84-5.02 5.02-8.97 10.89-11.84 17.59-2.88 6.71-4.31 13.86-4.31 21.45v28.06h-56.12v-.46c7.59 0 14.74-1.44 21.45-4.31 6.71-2.88 12.57-6.82 17.6-11.84 5.02-5.02 8.97-10.89 11.85-17.6 2.88-6.71 4.31-13.86 4.31-21.45v-55.2c0-7.59-1.44-14.74-4.31-21.45-2.88-6.71-6.82-12.57-11.85-17.59-5.02-5.02-10.89-8.97-17.6-11.84-6.71-2.88-13.86-4.31-21.45-4.31v-.46h56.12ZM694.6 1800v83.49h-55.2v26.91h-.46v-27.37h55.2v-82.57h-55.2c-7.59 0-14.74 1.44-21.45 4.31-6.71 2.88-12.57 6.82-17.59 11.84s-8.97 10.89-11.85 17.59c-2.88 6.71-4.31 13.86-4.31 21.45h-.46v-55.66H694.6Zm-83.26 110.86H667v55.66h-.46c0-7.59-1.44-14.74-4.31-21.45-2.88-6.71-6.82-12.57-11.84-17.6-5.02-5.02-10.89-8.97-17.6-11.84-6.71-2.88-13.86-4.31-21.45-4.31v-.46ZM812.59 1814.6c-7.59 0-14.74 1.44-21.45 4.31-6.71 2.88-12.57 6.82-17.6 11.84-5.02 5.02-8.97 10.89-11.84 17.6-2.88 6.71-4.31 13.86-4.31 21.45h-.46v-55.66h55.66v.46Zm-4.77 116.32c-2.88-6.71-6.82-12.57-11.84-17.59s-10.89-8.97-17.6-11.84c-6.71-2.88-13.86-4.31-21.45-4.31v-.46h55.66v55.66h-.46c0-7.59-1.44-14.74-4.31-21.45ZM874.92 1910.86h55.66v55.66h-55.66v-55.66Z"/></svg>