<svg xmlns="http://www.w3.org/2000/svg" viewBox="0 0 986.24 1966.52">
    <style>
        path { fill: #000; }
        @media (prefers-color-scheme: dark) { path { fill: #c9d1d9; } }
    </style>
    <path d="M0 0h111.32v166.52H75.9v-5.98c0-2.76-.54-5.37-1.61-7.82s-2.53-4.6-4.37-6.44-3.99-3.29-6.44-4.37c-2.45-1.07-5.06-1.61-7.82-1.61s-5.48.54-7.94 1.61c-2.45 1.08-4.6 2.53-6.44 4.37-1.84 1.84-3.28 3.99-4.31 6.44-1.04 2.45-1.55 5.06-1.55 7.82v5.98H0V0Zm36.97 63.48c1.03 2.45 2.47 4.6 4.31 6.44 1.84 1.84 3.99 3.3 6.44 4.37 2.45 1.08 5.06 1.61 7.82 1.61s5.48-.54 7.94-1.61c2.45-1.07 4.6-2.53 6.44-4.37 1.84-1.84 3.3-3.99 4.37-6.44 1.07-2.45 1.61-5.06 1.61-7.82s-.54-5.37-1.61-7.82-2.53-4.6-4.37-6.44-3.99-3.29-6.44-4.37c-2.45-1.07-5.06-1.61-7.82-1.61s-5.48.54-7.94 1.61c-2.45 1.08-4.6 2.53-6.44 4.37-1.84 1.84-3.28 3.99-4.31 6.44-1.04 2.45-1.55 5.06-1.55 7.82s.52 5.37 1.55 7.82ZM145.82 0h111.32v166.52H145.82V0Zm55.89 40.82c2.76 0 5.37-.52 7.82-1.55 2.45-1.04 4.56-2.45 6.33-4.26 1.76-1.8 3.18-3.91 4.25-6.32 1.07-2.42 1.61-5 1.61-7.76h-40.48v19.89h20.47Zm-20.47 49.91v40.37h20.24c2.84 0 5.48-.54 7.94-1.61 2.45-1.07 4.58-2.51 6.38-4.31 1.8-1.8 3.24-3.93 4.31-6.38 1.07-2.45 1.61-5.06 1.61-7.82 0-2.91-.54-5.58-1.61-7.99-1.07-2.42-2.51-4.54-4.31-6.38-1.8-1.84-3.93-3.28-6.38-4.31-2.45-1.04-5.1-1.55-7.94-1.55h-20.24ZM376.28 116.61c2.76 0 5.37-.54 7.82-1.61s4.6-2.53 6.44-4.37c1.84-1.84 3.3-3.99 4.37-6.44 1.07-2.45 1.61-5.06 1.61-7.82h6.44v70.15H291.64V0h111.32v70.15h-6.44c0-2.76-.54-5.37-1.61-7.82s-2.53-4.6-4.37-6.44c-1.84-1.84-3.99-3.3-6.44-4.37-2.45-1.07-5.06-1.61-7.82-1.61h-20.24v66.7h20.24ZM437.46 0h111.32v166.52H437.46V0Zm35.42 49.91v66.7h20.24c2.76 0 5.37-.54 7.82-1.61s4.6-2.53 6.44-4.37c1.84-1.84 3.3-3.99 4.37-6.44 1.07-2.45 1.61-5.06 1.61-7.82V70.15c0-2.76-.54-5.37-1.61-7.82s-2.53-4.6-4.37-6.44-3.99-3.3-6.44-4.37c-2.45-1.07-5.06-1.61-7.82-1.61h-20.24ZM583.28 166.52V0H694.6v55.66h-6.44c0-2.76-.52-5.37-1.55-7.82-1.04-2.45-2.47-4.6-4.31-6.44-1.84-1.84-4.01-3.29-6.5-4.37-2.49-1.07-5.12-1.61-7.88-1.61h-20.24v30.24h46.92v35.19h-46.92v30.25h20.24c2.76 0 5.37-.54 7.82-1.61s4.6-2.53 6.44-4.37c1.84-1.84 3.3-3.99 4.37-6.44 1.07-2.45 1.61-5.06 1.61-7.82h6.44v55.66H583.28ZM813.74 35.42c-2.76 0-5.37.54-7.82 1.61-2.45 1.08-4.6 2.53-6.44 4.37-1.84 1.84-3.3 3.99-4.37 6.44-1.07 2.45-1.61 5.06-1.61 7.82v9.2h46.92v36h-26.33c-2.76 0-5.37.52-7.82 1.55-2.45 1.04-4.6 2.47-6.44 4.31-1.84 1.84-3.3 3.99-4.37 6.44-1.07 2.46-1.61 5.06-1.61 7.82v45.54H729.1V0h111.32v55.66h-6.44c0-2.76-.54-5.37-1.61-7.82s-2.53-4.6-4.37-6.44c-1.84-1.84-3.99-3.29-6.44-4.37-2.45-1.07-5.06-1.61-7.82-1.61ZM951.74 51.52c-2.45 1.07-4.6 2.53-6.44 4.37-1.84 1.84-3.3 3.99-4.37 6.44-1.07 2.46-1.61 5.06-1.61 7.82V96.6c0 2.76.54 5.37 1.61 7.82s2.53 4.6 4.37 6.44c1.84 1.84 3.99 3.3 6.44 4.37 2.45 1.07 5.06 1.61 7.82 1.61h20.24v-6.79c0-2.76-.54-5.37-1.61-7.82s-2.53-4.6-4.37-6.44c-1.84-1.84-3.99-3.3-6.44-4.37-2.45-1.07-5.06-1.61-7.82-1.61v-6.44h26.68v83.14H874.92V0h111.32v70.15h-6.44c0-2.76-.52-5.37-1.55-7.82-1.04-2.45-2.47-4.6-4.31-6.44-1.84-1.84-3.99-3.3-6.44-4.37-2.45-1.07-5.1-1.61-7.94-1.61s-5.37.54-7.82 1.61ZM0 200h35.42v16.21c0 2.76.54 5.37 1.61 7.82 1.07 2.46 2.53 4.6 4.37 6.44 1.84 1.84 3.99 3.3 6.44 4.37 2.45 1.07 5.06 1.61 7.82 1.61s5.37-.54 7.82-1.61 4.6-2.53 6.44-4.37 3.3-3.99 4.37-6.44c1.07-2.45 1.61-5.06 1.61-7.82V200h35.42v166.52H75.9v-16.21c0-2.76-.54-5.37-1.61-7.82s-2.53-4.6-4.37-6.44c-1.84-1.84-3.99-3.3-6.44-4.37-2.45-1.07-5.06-1.61-7.82-1.61s-5.37.54-7.82 1.61-4.6 2.53-6.44 4.37c-1.84 1.84-3.3 3.99-4.37 6.44-1.07 2.46-1.61 5.06-1.61 7.82v16.21H0V200ZM145.82 316.61h2.99c2.76 0 5.38-.54 7.88-1.61 2.49-1.07 4.66-2.53 6.5-4.37 1.84-1.84 3.3-3.99 4.37-6.44 1.07-2.45 1.61-5.06 1.61-7.82v-26.22c0-2.76-.54-5.37-1.61-7.82s-2.53-4.6-4.37-6.44c-1.84-1.84-4.01-3.3-6.5-4.37-2.49-1.07-5.12-1.61-7.88-1.61h-2.99V200h111.32v49.91h-2.99c-2.76 0-5.39.54-7.88 1.61s-4.66 2.53-6.5 4.37-3.3 3.99-4.37 6.44c-1.07 2.46-1.61 5.06-1.61 7.82v26.22c0 2.76.54 5.37 1.61 7.82 1.07 2.46 2.53 4.6 4.37 6.44 1.84 1.84 4.01 3.3 6.5 4.37 2.49 1.07 5.12 1.61 7.88 1.61h2.99v49.91H145.82v-49.91ZM326.14 329.49c2.45-1.07 4.6-2.53 6.44-4.37 1.84-1.84 3.3-3.99 4.37-6.44 1.07-2.45 1.61-5.06 1.61-7.82v-26.22c0-2.76-.54-5.37-1.61-7.82s-2.53-4.6-4.37-6.44c-1.84-1.84-3.99-3.3-6.44-4.37-2.45-1.07-5.06-1.61-7.82-1.61V200h84.64v166.52H291.64v-55.66h6.44c0 2.76.54 5.37 1.61 7.82s2.53 4.6 4.37 6.44c1.84 1.84 3.99 3.3 6.44 4.37 2.45 1.08 5.06 1.61 7.82 1.61s5.37-.54 7.82-1.61ZM485.76 200v36.45H506c2.76 0 5.37-.54 7.82-1.61s4.6-2.53 6.44-4.37c1.84-1.84 3.3-3.99 4.37-6.44 1.07-2.45 1.61-5.06 1.61-7.82V200h22.54v166.52h-22.54v-16.21c0-2.76-.54-5.37-1.61-7.82s-2.53-4.6-4.37-6.44c-1.84-1.84-3.99-3.3-6.44-4.37-2.45-1.07-5.06-1.61-7.82-1.61s-5.37.54-7.82 1.61-4.6 2.53-6.44 4.37c-1.84 1.84-3.3 3.99-4.37 6.44-1.07 2.46-1.61 5.06-1.61 7.82v16.21h-48.3V200h48.3ZM675.79 329.49c2.49-1.07 4.66-2.53 6.5-4.37 1.84-1.84 3.28-3.99 4.31-6.44 1.03-2.45 1.55-5.06 1.55-7.82h6.44v55.66H583.27V200h64.4v110.86c0 2.76.54 5.37 1.61 7.82s2.53 4.6 4.37 6.44c1.84 1.84 3.99 3.3 6.44 4.37 2.45 1.08 5.06 1.61 7.82 1.61s5.39-.54 7.88-1.61ZM814.66 366.52v-52.55c0-2.38-.44-4.6-1.32-6.67-.88-2.07-2.09-3.87-3.62-5.41-1.53-1.53-3.34-2.76-5.41-3.68-2.07-.92-4.33-1.38-6.79-1.38v69.69h-25.53v-69.69c-2.38 0-4.6.44-6.67 1.32-2.07.88-3.87 2.11-5.41 3.68-1.53 1.57-2.76 3.38-3.68 5.41-.92 2.03-1.38 4.24-1.38 6.61v52.67h-25.76V200h111.32v166.52h-25.76ZM943.34 200v72.79c2.38 0 4.6-.46 6.67-1.38 2.07-.92 3.87-2.14 5.4-3.68 1.53-1.53 2.76-3.33 3.68-5.41.92-2.07 1.38-4.29 1.38-6.67v-55.66h25.76v166.52h-68.42v-72.79c-2.38 0-4.6.46-6.67 1.38-2.07.92-3.87 2.15-5.41 3.68-1.53 1.54-2.76 3.33-3.68 5.41s-1.38 4.29-1.38 6.67v55.66h-25.76V200h68.42ZM0 400h111.32v166.52H0V400Zm37.03 104.19c1.07 2.46 2.53 4.6 4.37 6.44 1.84 1.84 3.99 3.3 6.44 4.37 2.45 1.07 5.06 1.61 7.82 1.61s5.37-.54 7.82-1.61 4.6-2.53 6.44-4.37c1.84-1.84 3.3-3.99 4.37-6.44 1.07-2.45 1.61-5.06 1.61-7.82v-26.22c0-2.76-.54-5.37-1.61-7.82s-2.53-4.6-4.37-6.44-3.99-3.3-6.44-4.37c-2.45-1.07-5.06-1.61-7.82-1.61s-5.37.54-7.82 1.61-4.6 2.53-6.44 4.37c-1.84 1.84-3.3 3.99-4.37 6.44-1.07 2.46-1.61 5.06-1.61 7.82v26.22c0 2.76.54 5.37 1.61 7.82ZM145.82 400h111.32v140.3h-46.57v26.22h-64.75V400Zm35.42 75.9h20.24c2.76 0 5.37-.54 7.82-1.61s4.6-2.53 6.44-4.37c1.84-1.84 3.3-3.99 4.37-6.44 1.07-2.45 1.61-5.06 1.61-7.82s-.54-5.37-1.61-7.82-2.53-4.6-4.37-6.44-3.99-3.29-6.44-4.37c-2.45-1.07-5.06-1.61-7.82-1.61h-20.24v40.48ZM291.64 400h111.32v146.28c-2.76 0-5.37.54-7.82 1.61s-4.6 2.53-6.44 4.37-3.3 3.99-4.37 6.44c-1.07 2.46-1.61 5.06-1.61 7.82h-91.08V400Zm36 96.37c0 2.76.54 5.37 1.61 7.82 1.07 2.46 2.53 4.6 4.37 6.44 1.84 1.84 3.99 3.3 6.44 4.37 2.45 1.07 5.06 1.61 7.82 1.61v-20.24h20.24v-25.99c0-2.76-.54-5.37-1.61-7.82s-2.53-4.6-4.37-6.44c-1.84-1.84-3.99-3.29-6.44-4.37-2.45-1.07-5.06-1.61-7.82-1.61s-5.37.54-7.82 1.61-4.6 2.53-6.44 4.37c-1.84 1.84-3.3 3.99-4.37 6.44-1.07 2.45-1.61 5.06-1.61 7.82v25.99ZM437.46 400h111.32v166.52h-35.42v-5.98c0-2.76-.54-5.37-1.61-7.82s-2.53-4.6-4.37-6.44-3.99-3.29-6.44-4.37c-2.45-1.07-5.06-1.61-7.82-1.61h-20.24v26.22h-35.42V400Zm63.48 74.29c2.45-1.07 4.6-2.53 6.44-4.37 1.84-1.84 3.3-3.99 4.37-6.44 1.07-2.45 1.61-5.06 1.61-7.82s-.54-5.37-1.61-7.82-2.53-4.6-4.37-6.44-3.99-3.29-6.44-4.37c-2.45-1.07-5.06-1.61-7.82-1.61h-20.24v40.48h20.24c2.76 0 5.37-.54 7.82-1.61ZM630.08 531.1v-20.24c0-2.76-.54-5.37-1.61-7.82s-2.53-4.6-4.37-6.44c-1.84-1.84-3.99-3.3-6.44-4.37-2.45-1.07-5.06-1.61-7.82-1.61h-26.56V400H694.6v54.97h-6.44c0-2.76-.52-5.35-1.55-7.76-1.04-2.42-2.44-4.5-4.2-6.27-1.76-1.76-3.85-3.16-6.27-4.2s-5-1.55-7.76-1.55h-20.35v20.24h46.57v111.09H583.28v-55.66h6.33c0 2.76.54 5.37 1.61 7.82s2.53 4.6 4.37 6.44c1.84 1.84 3.99 3.3 6.44 4.37 2.45 1.08 5.06 1.61 7.82 1.61h20.24ZM729.1 452.55V400h111.32v52.55h-6.44c0-2.38-.46-4.6-1.38-6.67-.92-2.07-2.13-3.87-3.62-5.41-1.5-1.53-3.3-2.76-5.4-3.68-2.11-.92-4.35-1.38-6.73-1.38v131.1h-64.17v-131.1c-2.38 0-4.6.46-6.67 1.38-2.07.92-3.87 2.13-5.4 3.62-1.53 1.5-2.76 3.3-3.68 5.41-.92 2.11-1.38 4.35-1.38 6.73h-6.44ZM910.34 400v52.55c0 2.76.54 5.37 1.61 7.82s2.53 4.6 4.37 6.44c1.84 1.84 3.99 3.3 6.44 4.37 2.45 1.07 5.06 1.61 7.82 1.61s5.48-.52 7.94-1.55c2.45-1.04 4.6-2.47 6.44-4.31 1.84-1.84 3.28-3.99 4.31-6.44 1.03-2.45 1.55-5.06 1.55-7.82V400h35.42v166.52H874.92V400h35.42ZM0 600h22.54v72.79h20.24c2.84 0 5.48-.52 7.94-1.55 2.45-1.04 4.6-2.47 6.44-4.31 1.84-1.84 3.28-3.99 4.31-6.44 1.04-2.45 1.55-5.06 1.55-7.82V600h48.3v166.52H0V600ZM257.14 766.52H145.82V600h25.76v52.55c0 2.38.44 4.6 1.32 6.67.88 2.07 2.09 3.87 3.62 5.41 1.53 1.53 3.33 2.76 5.4 3.68 2.07.92 4.33 1.38 6.79 1.38V600h25.53v69.69c2.38 0 4.62-.44 6.73-1.32 2.11-.88 3.91-2.11 5.41-3.68 1.5-1.57 2.7-3.37 3.62-5.41.92-2.03 1.38-4.24 1.38-6.61V600h25.76v166.52ZM291.64 766.52v-52.44h6.33c0 2.38.46 4.6 1.38 6.67.92 2.07 2.15 3.87 3.68 5.4 1.53 1.54 3.34 2.76 5.41 3.68 2.07.92 4.29 1.38 6.67 1.38V635.3c-2.38 0-4.6.46-6.67 1.38s-3.87 2.15-5.41 3.68c-1.53 1.54-2.76 3.33-3.68 5.41s-1.38 4.29-1.38 6.67h-6.33V600h111.32v52.44h-6.32c0-2.38-.46-4.6-1.38-6.67-.92-2.07-2.15-3.87-3.68-5.41-1.53-1.53-3.33-2.76-5.41-3.68-2.07-.92-4.29-1.38-6.67-1.38v95.91c2.38 0 4.6-.46 6.67-1.38 2.07-.92 3.87-2.15 5.41-3.68 1.53-1.53 2.76-3.33 3.68-5.4.92-2.07 1.38-4.29 1.38-6.67h6.32v52.44H291.64ZM472.88 600v26.22c0 2.76.54 5.37 1.61 7.82 1.07 2.46 2.53 4.6 4.37 6.44 1.84 1.84 3.99 3.3 6.44 4.37 2.45 1.07 5.06 1.61 7.82 1.61s5.37-.54 7.82-1.61 4.6-2.53 6.44-4.37 3.3-3.99 4.37-6.44c1.07-2.45 1.61-5.06 1.61-7.82V600h35.42v166.52H437.46V731.1h26.33c2.76 0 5.37-.54 7.82-1.61s4.6-2.53 6.44-4.37c1.84-1.84 3.3-3.99 4.37-6.44 1.07-2.45 1.61-5.06 1.61-7.82h-46.58V600h35.42ZM604.21 683.03h-20.93V600h73.37v116.61c2.38 0 4.58-.46 6.61-1.38 2.03-.92 3.83-2.15 5.41-3.68 1.57-1.53 2.8-3.33 3.68-5.41.88-2.07 1.32-4.29 1.32-6.67v-16.21h20.93v83.26h-73.37V649.91c-2.38 0-4.58.46-6.61 1.38-2.03.92-3.83 2.15-5.4 3.68-1.57 1.53-2.8 3.33-3.68 5.41-.88 2.07-1.32 4.29-1.32 6.67v15.98ZM840.42 600v166.52H729.1V664.86h46.92v-29.44h-20.24c-2.68 0-5.27.56-7.76 1.67-2.49 1.11-4.64 2.57-6.44 4.37-1.8 1.8-3.26 3.93-4.37 6.38-1.11 2.45-1.67 5.06-1.67 7.82h-6.44V600h111.32Zm-47.84 136.73c2.45-1.07 4.58-2.51 6.38-4.31 1.8-1.8 3.26-3.95 4.37-6.44 1.11-2.49 1.67-5.08 1.67-7.76v-10.81h-20.24c-2.68 0-5.27.54-7.76 1.61s-4.64 2.51-6.44 4.31c-1.8 1.8-3.26 3.95-4.37 6.44-1.11 2.49-1.67 5.08-1.67 7.76v10.81h20.24c2.76 0 5.37-.54 7.82-1.61ZM874.92 600h64.75v55.2h46.57v111.32H874.92V600Zm63.48 129.43c2.45-1.11 4.58-2.57 6.38-4.37 1.8-1.8 3.26-3.95 4.37-6.44 1.11-2.49 1.67-5.08 1.67-7.76s-.54-5.37-1.61-7.82-2.53-4.58-4.37-6.38c-1.84-1.8-3.99-3.26-6.44-4.37-2.45-1.11-5.06-1.67-7.82-1.67s-5.27.56-7.76 1.67c-2.49 1.11-4.64 2.57-6.44 4.37-1.8 1.8-3.26 3.93-4.37 6.38-1.11 2.46-1.67 5.06-1.67 7.82v20.24h20.24c2.76 0 5.37-.56 7.82-1.67ZM111.32 870.15h-6.44c0-2.76-.56-5.37-1.67-7.82-1.11-2.45-2.57-4.58-4.37-6.38-1.8-1.8-3.93-3.26-6.38-4.37-2.45-1.11-5.06-1.67-7.82-1.67H64.4v46.46c0 2.68.56 5.27 1.67 7.76 1.11 2.49 2.57 4.64 4.37 6.44 1.8 1.8 3.95 3.26 6.44 4.37 2.49 1.11 5.08 1.67 7.76 1.67h26.68v49.91H0V800h111.32v70.15ZM145.82 966.52V855.2h46.58V800h64.74v166.52H145.82Zm75.9-35.42v-20.24c0-2.76-.54-5.37-1.61-7.82s-2.53-4.58-4.37-6.38c-1.84-1.8-3.99-3.26-6.44-4.37-2.45-1.11-5.06-1.67-7.82-1.67s-5.27.54-7.76 1.61-4.64 2.53-6.44 4.37c-1.8 1.84-3.26 3.99-4.37 6.44-1.11 2.46-1.67 5.06-1.67 7.82s.56 5.27 1.67 7.76c1.11 2.49 2.57 4.64 4.37 6.44 1.8 1.8 3.95 3.26 6.44 4.37 2.49 1.11 5.08 1.67 7.76 1.67h20.24ZM291.64 966.52V800h111.32v100.05h-46.57v10.81c0 2.68.54 5.27 1.61 7.76s2.51 4.64 4.31 6.44c1.8 1.8 3.95 3.26 6.44 4.37 2.49 1.11 5.08 1.67 7.76 1.67h26.45v35.42H291.64Zm47.9-136.74c-2.49 1.08-4.64 2.51-6.44 4.31-1.8 1.8-3.26 3.95-4.37 6.44-1.11 2.49-1.67 5.08-1.67 7.76v9.2h20.24c2.76 0 5.37-.54 7.82-1.61s4.58-2.51 6.38-4.31c1.8-1.8 3.26-3.95 4.37-6.44 1.11-2.49 1.67-5.08 1.67-7.76v-9.2H347.3c-2.68 0-5.27.54-7.76 1.61ZM437.46 800h111.32v55.66h-6.44c0-2.76-.56-5.37-1.67-7.82-1.11-2.45-2.57-4.58-4.37-6.38-1.8-1.8-3.93-3.26-6.38-4.37-2.45-1.11-5.06-1.67-7.82-1.67h-19.9v29.44h46.57v36H502.2v65.67h-64.75V800.01ZM583.28 910.86h6.44c0 2.68.56 5.27 1.67 7.76 1.11 2.49 2.57 4.64 4.37 6.44 1.8 1.8 3.95 3.26 6.44 4.37 2.49 1.11 5.08 1.67 7.76 1.67h20.24v-31.05h-46.92V800H694.6v166.52H583.28v-55.66Zm47.9-82.11c-2.49 1.07-4.64 2.51-6.44 4.31-1.8 1.8-3.26 3.95-4.37 6.44-1.11 2.49-1.67 5.08-1.67 7.76v10.24h20.24c2.76 0 5.37-.54 7.82-1.61s4.58-2.51 6.38-4.31c1.8-1.8 3.26-3.95 4.37-6.44 1.11-2.49 1.67-5.08 1.67-7.76v-10.24h-20.24c-2.68 0-5.27.54-7.76 1.61ZM729.1 966.52V800h64.75v55.2h46.57v111.32H805v-25.64c0-2.76-.54-5.37-1.61-7.82s-2.53-4.58-4.37-6.38c-1.84-1.8-3.99-3.26-6.44-4.37-2.45-1.11-5.06-1.67-7.82-1.67h-20.24v45.88H729.1ZM895.16 855.66h3.1c0-2.76-.56-5.37-1.67-7.82-1.11-2.45-2.57-4.58-4.37-6.38-1.8-1.8-3.93-3.26-6.38-4.37-2.45-1.11-5.06-1.67-7.82-1.67h-3.1V800h87.98v55.66h-67.73Zm-20.24 43.01v-33.81h87.98v64.75h23.34v36.92H874.92v-36.92h3.1c2.68 0 5.27-.56 7.76-1.67 2.49-1.11 4.64-2.57 6.44-4.37 1.8-1.8 3.26-3.95 4.37-6.44 1.11-2.49 1.67-5.08 1.67-7.76v-10.69h-23.35ZM111.32 1166.52H0v-55.66h6.44c0 2.68.56 5.27 1.67 7.76 1.11 2.49 2.57 4.64 4.37 6.44 1.8 1.8 3.95 3.26 6.44 4.37 2.49 1.11 5.08 1.67 7.76 1.67h20.24V1000h64.4v166.52ZM145.82 1000h35.42v52.55h20.24c2.76 0 5.37-.52 7.82-1.55 2.45-1.04 4.6-2.47 6.44-4.31s3.3-3.99 4.37-6.44c1.07-2.45 1.61-5.06 1.61-7.82V1000h35.42v166.52h-35.42c0-2.76-.54-5.37-1.61-7.82s-2.53-4.6-4.37-6.44-3.99-3.3-6.44-4.37c-2.45-1.07-5.06-1.61-7.82-1.61h-20.24v20.24h-35.42V1000ZM291.64 1166.52V1000h64.4v131.1h20.24c2.76 0 5.37-.54 7.82-1.61s4.6-2.53 6.44-4.37c1.84-1.84 3.3-3.99 4.37-6.44 1.07-2.45 1.61-5.06 1.61-7.82h6.44v55.66H291.64ZM523.02 1166.52v-56.7c0-2.38-.46-4.6-1.38-6.67-.92-2.07-2.13-3.87-3.62-5.4-1.5-1.53-3.3-2.76-5.41-3.68-2.11-.92-4.35-1.38-6.73-1.38v73.83h-25.53v-56.7c0-2.38-.46-4.6-1.38-6.67-.92-2.07-2.15-3.87-3.68-5.4-1.53-1.53-3.33-2.76-5.4-3.68-2.07-.92-4.29-1.38-6.67-1.38v73.83h-25.76V1000h111.32v166.52h-25.76ZM694.6 1000v166.52h-35.42v-52.55c0-2.76-.54-5.37-1.61-7.82s-2.53-4.6-4.37-6.44c-1.84-1.84-3.99-3.29-6.44-4.37-2.45-1.07-5.06-1.61-7.82-1.61H618.7v72.79h-35.42V1000H694.6ZM729.1 1166.52V1000h111.32v166.52H729.1Zm55.66-49.91c2.76 0 5.37-.54 7.82-1.61s4.6-2.53 6.44-4.37c1.84-1.84 3.3-3.99 4.37-6.44 1.07-2.45 1.61-5.06 1.61-7.82v-46.46h-20.24c-2.76 0-5.37.54-7.82 1.61s-4.6 2.53-6.44 4.37c-1.84 1.84-3.3 3.99-4.37 6.44-1.07 2.46-1.61 5.06-1.61 7.82v46.46h20.24ZM986.24 1000v111.32h-46.57v55.2h-64.75V1000h111.32Zm-47.84 74.23c2.45-1.11 4.58-2.57 6.38-4.37 1.8-1.8 3.26-3.95 4.37-6.44 1.11-2.49 1.67-5.08 1.67-7.76s-.54-5.37-1.61-7.82-2.53-4.58-4.37-6.38c-1.84-1.8-3.99-3.26-6.44-4.37-2.45-1.11-5.06-1.67-7.82-1.67s-5.27.56-7.76 1.67c-2.49 1.11-4.64 2.57-6.44 4.37-1.8 1.8-3.26 3.93-4.37 6.38-1.11 2.45-1.67 5.06-1.67 7.82v20.24h20.24c2.76 0 5.37-.55 7.82-1.67ZM111.32 1366.52H46.58v-55.2H0V1200h111.32v166.52ZM75.9 1275.9v-20.24c0-2.76-.54-5.37-1.61-7.82s-2.53-4.58-4.37-6.38c-1.84-1.8-3.99-3.26-6.44-4.37-2.45-1.11-5.06-1.67-7.82-1.67s-5.27.54-7.76 1.61c-2.49 1.08-4.64 2.53-6.44 4.37-1.8 1.84-3.26 3.99-4.37 6.44-1.11 2.45-1.67 5.06-1.67 7.82s.56 5.27 1.67 7.76c1.11 2.49 2.57 4.64 4.37 6.44 1.8 1.8 3.95 3.26 6.44 4.37 2.49 1.11 5.08 1.67 7.76 1.67H75.9ZM210.56 1235.42v131.1h-64.75V1200h111.32v55.66h-6.44c0-2.76-.54-5.37-1.61-7.82s-2.53-4.6-4.37-6.44c-1.84-1.84-3.99-3.29-6.44-4.37-2.45-1.07-5.06-1.61-7.82-1.61h-19.9ZM291.64 1310.86h6.44c0 2.76.54 5.37 1.61 7.82s2.53 4.6 4.37 6.44c1.84 1.84 3.99 3.3 6.44 4.37 2.45 1.08 5.06 1.61 7.82 1.61h20.24v-14.83c0-2.38-.46-4.62-1.38-6.73-.92-2.11-2.15-3.93-3.68-5.46-1.53-1.53-3.33-2.76-5.4-3.68-2.07-.92-4.29-1.38-6.67-1.38h-29.79v-99.01h111.32v55.66h-6.44c0-2.76-.54-5.37-1.61-7.82s-2.51-4.6-4.31-6.44c-1.8-1.84-3.93-3.29-6.38-4.37-2.45-1.07-5.1-1.61-7.94-1.61h-20.24v29.44h46.92v101.66H291.64v-55.66ZM548.78 1289.12h-46.57v20.24c0 2.68.54 5.27 1.61 7.76s2.51 4.64 4.31 6.44c1.8 1.8 3.95 3.26 6.44 4.37 2.49 1.11 5.08 1.67 7.76 1.67h26.45v36.92H437.46V1200h64.75v34.96c0 2.76.56 5.37 1.67 7.82 1.11 2.46 2.57 4.6 4.37 6.44 1.8 1.84 3.95 3.3 6.44 4.37 2.49 1.07 5.08 1.61 7.76 1.61h26.33v33.93ZM583.28 1366.52V1200h35.42v52.9c0 2.76.54 5.37 1.61 7.82s2.53 4.6 4.37 6.44c1.84 1.84 3.99 3.3 6.44 4.37 2.45 1.08 5.06 1.61 7.82 1.61s5.48-.54 7.94-1.61c2.45-1.07 4.6-2.53 6.44-4.37 1.84-1.84 3.28-3.99 4.31-6.44 1.03-2.45 1.55-5.06 1.55-7.82v-26.22c0-2.76-.54-5.37-1.61-7.82s-2.53-4.6-4.37-6.44c-1.84-1.84-3.99-3.3-6.44-4.37-2.45-1.07-5.06-1.61-7.82-1.61V1200h55.66v166.52H583.28ZM729.1 1366.52V1200h55.66v6.44c-2.76 0-5.37.54-7.82 1.61s-4.6 2.53-6.44 4.37c-1.84 1.84-3.3 3.99-4.37 6.44-1.07 2.46-1.61 5.06-1.61 7.82v46.46h20.24c2.84 0 5.48-.54 7.94-1.61 2.45-1.07 4.6-2.53 6.44-4.37 1.84-1.84 3.28-3.99 4.31-6.44 1.03-2.45 1.55-5.06 1.55-7.82V1200h35.42v166.52H729.1ZM900.68 1200v56.69c0 2.38.46 4.6 1.38 6.67.92 2.07 2.13 3.87 3.62 5.41 1.49 1.53 3.3 2.76 5.4 3.68 2.11.92 4.35 1.38 6.73 1.38V1200h25.53v56.69c0 2.38.46 4.6 1.38 6.67.92 2.07 2.15 3.87 3.68 5.41 1.53 1.53 3.33 2.76 5.41 3.68 2.07.92 4.29 1.38 6.67 1.38V1200h25.76v166.52H874.92V1200h25.76ZM111.32 1513.96v52.55H0v-35.42h6.44c2.38 0 4.6-.46 6.67-1.38 2.07-.92 3.87-2.15 5.41-3.68 1.53-1.53 2.76-3.33 3.68-5.4.92-2.07 1.38-4.29 1.38-6.67v-78.54c-2.38 0-4.6.46-6.67 1.38-2.07.92-3.87 2.13-5.4 3.62-1.53 1.5-2.76 3.3-3.68 5.41-.92 2.11-1.38 4.35-1.38 6.73H0v-52.55h111.32v35.42h-6.44c-2.38 0-4.6.46-6.67 1.38s-3.87 2.15-5.4 3.68c-1.53 1.53-2.76 3.33-3.68 5.41-.92 2.07-1.38 4.29-1.38 6.67v78.54c2.38 0 4.6-.46 6.67-1.38s3.87-2.13 5.4-3.62c1.53-1.5 2.76-3.29 3.68-5.4.92-2.11 1.38-4.35 1.38-6.73h6.44ZM145.82 1531.1h26.33c2.76 0 5.37-.56 7.82-1.67 2.45-1.11 4.58-2.57 6.38-4.37 1.8-1.8 3.26-3.95 4.37-6.44 1.11-2.49 1.67-5.08 1.67-7.76v-10.81h-46.58V1400h35.42v15.41c0 2.76.54 5.37 1.61 7.82s2.55 4.6 4.43 6.44c1.88 1.84 4.02 3.3 6.44 4.37 2.42 1.08 5 1.61 7.76 1.61s5.37-.54 7.82-1.61 4.6-2.53 6.44-4.37c1.84-1.84 3.3-3.99 4.37-6.44 1.07-2.45 1.61-5.06 1.61-7.82V1400h35.42v166.52H145.81v-35.42ZM291.64 1452.55V1400h87.75v131.1c2.38 0 4.6-.46 6.67-1.38s3.87-2.15 5.4-3.68c1.53-1.53 2.76-3.33 3.68-5.4.92-2.07 1.38-4.29 1.38-6.67h6.44v52.55h-87.74v-131.1c-2.38 0-4.6.46-6.67 1.38-2.07.92-3.87 2.15-5.4 3.68-1.53 1.53-2.76 3.33-3.68 5.41-.92 2.07-1.38 4.29-1.38 6.67h-6.44ZM437.46 1566.52v-36.92h3.22c2.76 0 5.37-.56 7.82-1.67 2.45-1.11 4.58-2.57 6.38-4.37 1.8-1.8 3.26-3.95 4.37-6.44 1.11-2.49 1.67-5.08 1.67-7.76v-46.46c-2.68 0-5.27.56-7.76 1.67-2.49 1.11-4.64 2.57-6.44 4.37-1.8 1.8-3.26 3.93-4.37 6.38-1.11 2.46-1.67 5.06-1.67 7.82h-3.22V1400h87.86v109.36c0 2.68.56 5.27 1.67 7.76 1.11 2.49 2.57 4.64 4.37 6.44 1.8 1.8 3.95 3.26 6.44 4.37 2.49 1.11 5.08 1.67 7.76 1.67h3.22v36.92H437.46ZM667.92 1531.1c2.76 0 5.37-.56 7.82-1.67 2.45-1.11 4.6-2.57 6.44-4.37 1.84-1.8 3.3-3.95 4.37-6.44 1.07-2.49 1.61-5.08 1.61-7.76h6.44v55.66H583.28v-101.66h46.92v-29.44h-20.24c-2.68 0-5.27.56-7.76 1.67-2.49 1.11-4.64 2.57-6.44 4.37-1.8 1.8-3.26 3.93-4.37 6.38-1.11 2.45-1.67 5.06-1.67 7.82h-6.44V1400H694.6v100.05h-46.92v31.05h20.24ZM840.42 1400v166.52H729.1v-55.66h6.44c0 2.68.56 5.27 1.67 7.76 1.11 2.49 2.57 4.64 4.37 6.44 1.8 1.8 3.95 3.26 6.44 4.37 2.49 1.11 5.08 1.67 7.76 1.67h20.24v-10.81c0-2.76-.56-5.37-1.67-7.82-1.11-2.45-2.57-4.58-4.37-6.38-1.8-1.8-3.93-3.26-6.38-4.37-2.45-1.11-5.06-1.67-7.82-1.67H729.1v-35.19h46.92v-29.44h-20.24c-2.68 0-5.27.56-7.76 1.67-2.49 1.11-4.64 2.57-6.44 4.37-1.8 1.8-3.26 3.93-4.37 6.38-1.11 2.45-1.67 5.06-1.67 7.82h-6.44V1400h111.32ZM910.34 1400v15.41c0 2.76.54 5.37 1.61 7.82s2.55 4.6 4.43 6.44c1.88 1.84 4.02 3.3 6.44 4.37 2.42 1.08 5 1.61 7.76 1.61s5.37-.54 7.82-1.61 4.6-2.53 6.44-4.37c1.84-1.84 3.3-3.99 4.37-6.44 1.07-2.45 1.61-5.06 1.61-7.82V1400h35.42v166.52H921.5v-46.12c0-2.68-.54-5.27-1.61-7.76s-2.55-4.66-4.43-6.5c-1.88-1.84-4.02-3.28-6.44-4.31s-5-1.55-7.76-1.55h-26.33V1400h35.42ZM34.44 1729.43c2.49-1.11 4.64-2.57 6.44-4.37 1.8-1.8 3.26-3.95 4.37-6.44 1.11-2.49 1.67-5.08 1.67-7.76v-10.81H0V1600h111.32v35.42H84.99c-2.68 0-5.27.56-7.76 1.67-2.49 1.11-4.64 2.57-6.44 4.37-1.8 1.8-3.26 3.93-4.37 6.38-1.11 2.45-1.67 5.06-1.67 7.82v9.2h46.57v101.66H0v-55.66h6.44c0 2.68.56 5.27 1.67 7.76 1.11 2.49 2.57 4.64 4.37 6.44 1.8 1.8 3.95 3.26 6.44 4.37 2.49 1.11 5.08 1.67 7.76 1.67s5.27-.56 7.76-1.67ZM145.82 1766.52V1600h111.32v36.91h-26.33c-2.68 0-5.27.56-7.76 1.67-2.49 1.11-4.64 2.57-6.44 4.37-1.8 1.8-3.26 3.93-4.37 6.38-1.11 2.45-1.67 5.06-1.67 7.82v9.2h46.57v100.17H145.82Zm55.66-26.68c2.76 0 5.37-.54 7.82-1.61s4.58-2.51 6.38-4.31c1.8-1.8 3.26-3.95 4.37-6.44 1.11-2.49 1.67-5.08 1.67-7.76v-12.31h-20.24c-2.68 0-5.27.54-7.76 1.61s-4.64 2.51-6.44 4.31c-1.8 1.8-3.26 3.95-4.37 6.44-1.11 2.49-1.67 5.08-1.67 7.76v12.31h20.24ZM318.32 1636.91c-2.68 0-5.27.56-7.76 1.67-2.49 1.11-4.64 2.57-6.44 4.37-1.8 1.8-3.26 3.93-4.37 6.38-1.11 2.45-1.67 5.06-1.67 7.82h-6.44V1600h111.32v166.52h-64.4v-109.37c0-2.76-.56-5.37-1.67-7.82-1.11-2.45-2.57-4.58-4.37-6.38-1.8-1.8-3.95-3.26-6.44-4.37-2.49-1.11-5.08-1.67-7.76-1.67ZM437.46 1600h111.32v166.52H437.46V1600Zm55.66 57.5c2.76 0 5.37-.54 7.82-1.61s4.58-2.51 6.38-4.31c1.8-1.8 3.26-3.95 4.37-6.44 1.11-2.49 1.67-5.08 1.67-7.76v-9.2h-20.24c-2.68 0-5.27.54-7.76 1.61-2.49 1.08-4.64 2.51-6.44 4.31-1.8 1.8-3.26 3.95-4.37 6.44-1.11 2.49-1.67 5.08-1.67 7.76v9.2h20.24Zm0 80.84c2.76 0 5.37-.54 7.82-1.61s4.58-2.51 6.38-4.31c1.8-1.8 3.26-3.95 4.37-6.44 1.11-2.49 1.67-5.08 1.67-7.76v-10.81h-20.24c-2.68 0-5.27.54-7.76 1.61s-4.64 2.51-6.44 4.31c-1.8 1.8-3.26 3.95-4.37 6.44-1.11 2.49-1.67 5.08-1.67 7.76v10.81h20.24ZM694.6 1600v166.52H583.28v-36.92h26.33c2.76 0 5.37-.56 7.82-1.67 2.45-1.11 4.58-2.57 6.38-4.37 1.8-1.8 3.26-3.95 4.37-6.44 1.11-2.49 1.67-5.08 1.67-7.76v-10.81h-46.58V1600h111.32Zm-55.66 28.17c-2.68 0-5.27.54-7.76 1.61-2.49 1.08-4.64 2.51-6.44 4.31-1.8 1.8-3.26 3.95-4.37 6.44-1.11 2.49-1.67 5.08-1.67 7.76v9.2h20.24c2.76 0 5.37-.54 7.82-1.61s4.58-2.51 6.38-4.31c1.8-1.8 3.26-3.95 4.37-6.44 1.11-2.49 1.67-5.08 1.67-7.76v-9.2h-20.24ZM729.1 1600h111.32v166.52H729.1V1600Zm75.9 70.15c0-2.76-.54-5.37-1.61-7.82s-2.53-4.6-4.37-6.44-3.99-3.3-6.44-4.37c-2.45-1.07-5.06-1.61-7.82-1.61h-20.24v46.46c0 2.76.54 5.37 1.61 7.82 1.07 2.46 2.53 4.6 4.37 6.44 1.84 1.84 3.99 3.3 6.44 4.37 2.45 1.07 5.06 1.61 7.82 1.61H805v-46.46ZM874.92 1710.63V1600h55.66v90.39c-2.76 0-5.37.54-7.82 1.61s-4.6 2.53-6.44 4.37c-1.84 1.84-3.3 3.99-4.37 6.44-1.07 2.45-1.61 5.06-1.61 7.82h-35.42Zm20.24 55.89c0-2.76-.52-5.37-1.55-7.82-1.04-2.45-2.47-4.6-4.31-6.44s-4.01-3.3-6.5-4.37c-2.49-1.07-5.12-1.61-7.88-1.61v-35.19h55.66v55.43h-35.42ZM111.32 1836.91h-3.1c-2.76 0-5.37.54-7.82 1.61s-4.6 2.53-6.44 4.37-3.3 3.99-4.37 6.44c-1.07 2.45-1.61 5.06-1.61 7.82v52.21c0 2.76.54 5.37 1.61 7.82s2.53 4.6 4.37 6.44c1.84 1.84 3.99 3.3 6.44 4.37 2.45 1.08 5.06 1.61 7.82 1.61h3.1v36.92H23.35v-30.93c0-2.76-.54-5.37-1.61-7.82s-2.53-4.6-4.37-6.44c-1.84-1.84-3.99-3.29-6.44-4.37-2.45-1.07-5.06-1.61-7.82-1.61H0v-64.4h3.1c2.76 0 5.37-.54 7.82-1.61s4.6-2.53 6.44-4.37c1.84-1.84 3.3-3.99 4.37-6.44 1.07-2.45 1.61-5.06 1.61-7.82v-30.7h87.98v36.91ZM257.02 1870.15h-6.44c0-2.76-.56-5.37-1.67-7.82-1.11-2.45-2.57-4.58-4.37-6.38-1.8-1.8-3.93-3.26-6.38-4.37-2.45-1.11-5.06-1.67-7.82-1.67H210.1v46.46c0 2.68.56 5.27 1.67 7.76 1.11 2.49 2.57 4.64 4.37 6.44 1.8 1.8 3.95 3.26 6.44 4.37 2.49 1.11 5.08 1.67 7.76 1.67h26.68v49.91H145.7V1800h111.32v70.15Zm-83.72-99.59h17.94c0 1.46.27 2.8.81 4.03.54 1.23 1.27 2.3 2.19 3.22s1.97 1.63 3.16 2.13c1.19.5 2.51.75 3.97.75s2.8-.27 4.02-.8c1.23-.54 2.3-1.27 3.22-2.19s1.63-1.97 2.13-3.16c.5-1.19.75-2.51.75-3.97h17.94v28.06h-56.12v-28.06ZM291.52 1966.52V1800h111.32v100.05h-46.58v10.81c0 2.68.54 5.27 1.61 7.76s2.51 4.64 4.31 6.44c1.8 1.8 3.95 3.26 6.44 4.37 2.49 1.11 5.08 1.67 7.76 1.67h26.45v35.42H291.51Zm47.9-136.74c-2.49 1.08-4.64 2.51-6.44 4.31-1.8 1.8-3.26 3.95-4.37 6.44-1.11 2.49-1.67 5.08-1.67 7.76v9.2h20.24c2.76 0 5.37-.54 7.82-1.61s4.58-2.51 6.38-4.31c1.8-1.8 3.26-3.95 4.37-6.44 1.11-2.49 1.67-5.08 1.67-7.76v-9.2h-20.24c-2.68 0-5.27.54-7.76 1.61Zm21.79-59v27.83h-28.06v-27.83h28.06ZM525.43 1800v30.7c0 2.76.54 5.37 1.61 7.82 1.07 2.46 2.53 4.6 4.37 6.44s3.99 3.3 6.44 4.37c2.45 1.07 5.06 1.61 7.82 1.61h3.1v64.4h-3.1c-2.76 0-5.37.54-7.82 1.61-2.45 1.08-4.6 2.53-6.44 4.37s-3.3 3.99-4.37 6.44c-1.07 2.45-1.61 5.06-1.61 7.82v30.93h-87.98v-36.92h3.1c2.76 0 5.37-.54 7.82-1.61s4.6-2.53 6.44-4.37c1.84-1.84 3.3-3.99 4.37-6.44 1.07-2.45 1.61-5.06 1.61-7.82v-52.21c0-2.76-.54-5.37-1.61-7.82s-2.53-4.6-4.37-6.44c-1.84-1.84-3.99-3.3-6.44-4.37-2.45-1.07-5.06-1.61-7.82-1.61h-3.1v-36.91h87.98ZM694.6 1800v85.67h-37.72v24.72h-35.42v-45.54h37.72v-29.44h-20.24c-2.76 0-5.37.54-7.82 1.61-2.45 1.08-4.6 2.53-6.44 4.37-1.84 1.84-3.3 3.99-4.37 6.44-1.07 2.45-1.61 5.06-1.61 7.82h-35.42v-55.66H694.6Zm-83.26 110.86H667v55.66h-35.42c0-2.76-.54-5.37-1.61-7.82s-2.53-4.6-4.37-6.44c-1.84-1.84-3.99-3.3-6.44-4.37-2.45-1.07-5.06-1.61-7.82-1.61v-35.42ZM812.59 1849.56c-2.76 0-5.37.54-7.82 1.61s-4.6 2.53-6.44 4.37c-1.84 1.84-3.3 3.99-4.37 6.44-1.07 2.46-1.61 5.06-1.61 7.82h-35.42v-55.66h55.66v35.42Zm-37.03 94.99c-1.07-2.45-2.53-4.6-4.37-6.44-1.84-1.84-3.99-3.29-6.44-4.37-2.45-1.07-5.06-1.61-7.82-1.61v-35.42h55.66v55.66h-35.42c0-2.76-.54-5.37-1.61-7.82ZM874.92 1910.86h55.66v55.66h-55.66v-55.66Z"/>
</svg>